<?xml version="1.0" standalone="no"?>
<!DOCTYPE svg PUBLIC "-//W3C//DTD SVG 20010904//EN"
 "http://www.w3.org/TR/2001/REC-SVG-20010904/DTD/svg10.dtd">
<svg version="1.0" xmlns="http://www.w3.org/2000/svg"
 width="80.000000pt" height="45.000000pt" viewBox="0 0 116.000000 156.000000"
 preserveAspectRatio="xMidYMid meet">

<g transform="translate(0.000000,156.000000) scale(0.100000,-0.100000)"
fill="darkblue" stroke="none">
<path d="M777 1490 c-19 -16 -44 -49 -57 -72 l-22 -43 -104 3 c-57 2 -104 0
-104 -5 0 -4 21 -29 47 -55 l46 -47 -64 -180 c-35 -100 -67 -181 -70 -181 -3
0 -26 16 -50 35 -55 44 -76 29 -24 -17 21 -18 43 -36 50 -40 15 -9 8 -48 -9
-48 -6 0 -31 20 -56 45 -47 46 -60 53 -60 33 0 -7 -16 -44 -35 -81 -19 -38
-35 -70 -35 -73 0 -2 9 -4 21 -4 32 0 119 -41 119 -56 0 -7 -13 -49 -29 -94
-17 -45 -25 -82 -20 -86 5 -3 7 -9 4 -14 -3 -5 -1 -11 5 -15 6 -4 8 -10 5 -15
-3 -5 -1 -11 5 -15 6 -4 8 -11 5 -16 -4 -5 -2 -9 4 -9 6 0 9 -13 7 -30 -2 -16
1 -30 5 -30 5 0 9 7 9 17 0 21 69 235 79 246 4 4 15 -1 24 -11 17 -18 16 -25
-17 -123 -36 -108 -58 -238 -38 -225 6 3 13 0 15 -6 3 -7 6 7 6 32 2 59 15
118 48 209 l26 74 19 -24 c47 -60 138 -202 138 -216 0 -8 18 -53 39 -99 56
-119 67 -124 249 -124 l142 0 10 -26 c6 -14 10 -27 10 -30 0 -2 -69 -4 -153
-4 -122 0 -157 3 -175 16 -24 17 -28 8 -8 -18 12 -16 33 -18 185 -18 94 0 171
1 171 3 0 2 -13 43 -30 92 -16 49 -31 112 -31 139 l-2 51 -6 -40 c-4 -23 -1
-59 6 -85 17 -59 16 -62 -7 -20 -18 32 -19 58 -20 321 0 282 0 286 25 347 14
34 25 64 25 67 0 3 -65 5 -145 5 -132 0 -165 6 -135 25 13 8 13 95 0 115 -30
47 -64 -92 -40 -164 14 -45 39 -56 121 -56 56 0 59 -1 59 -25 0 -24 -2 -25
-69 -25 -49 0 -74 5 -85 15 -23 23 -28 18 -11 -14 16 -32 54 -43 128 -37 l37
3 0 -283 0 -284 -35 0 c-87 0 -138 51 -174 175 -30 101 -41 214 -42 425 -1
142 -3 176 -11 145 -5 -22 -8 -88 -6 -147 2 -60 1 -108 -2 -108 -14 1 -60 51
-55 60 3 6 1 10 -4 10 -7 0 -11 23 -11 57 0 31 -3 53 -7 50 -4 -4 -6 -33 -4
-65 2 -52 1 -55 -12 -37 -9 11 -13 23 -11 27 5 8 -23 4 -31 -4 -4 -3 10 -27
29 -53 26 -34 36 -56 36 -83 l0 -37 -28 35 c-15 19 -44 54 -64 76 -38 41 -38
42 -24 81 l14 39 -34 -4 c-21 -3 -34 0 -34 7 0 6 18 11 43 12 31 0 37 2 22 8
-20 8 -20 8 0 14 15 5 30 33 55 99 59 163 61 165 54 73 -3 -44 -10 -93 -14
-108 -6 -16 -5 -25 0 -22 5 3 11 -7 13 -22 3 -20 4 -16 6 14 1 42 13 61 57 89
18 12 24 28 29 72 24 219 81 352 149 352 14 0 34 -8 44 -18 33 -36 50 -60 46
-65 -3 -3 0 -8 7 -13 8 -5 10 -3 4 6 -6 10 -4 12 8 7 10 -4 14 -2 11 7 -3 7 1
13 8 13 7 0 21 4 31 8 10 4 17 3 17 -5 0 -6 -4 -8 -10 -5 -6 3 -7 -1 -4 -9 10
-26 21 -9 29 40 3 26 9 53 12 62 5 12 1 11 -20 -3 -27 -17 -28 -17 -95 24 -85
51 -126 54 -175 11z"/>
<path d="M842 1368 c-12 -6 -33 -34 -47 -62 -88 -182 -81 -855 10 -1013 9 -15
13 -19 9 -8 -58 169 -67 259 -62 581 4 197 9 276 22 329 20 83 46 131 81 147
28 13 53 -4 86 -57 22 -36 24 -27 5 19 -15 36 -53 76 -70 75 -6 0 -21 -5 -34
-11z"/>
<path d="M222 341 c-33 -59 -106 -135 -170 -178 l-57 -38 123 -3 c68 -1 175
-1 238 0 l115 3 -30 35 c-17 19 -30 31 -31 26 0 -5 7 -18 17 -28 15 -17 14
-18 -16 -18 -25 0 -42 10 -74 44 -50 52 -77 87 -77 99 0 4 -4 6 -9 3 -14 -9
-23 42 -10 65 20 38 3 29 -19 -10z"/>
</g>
</svg>
